<?xml version="1.0" standalone="no"?>
<!DOCTYPE svg PUBLIC "-//W3C//DTD SVG 20010904//EN"
 "http://www.w3.org/TR/2001/REC-SVG-20010904/DTD/svg10.dtd">
<svg version="1.0" xmlns="http://www.w3.org/2000/svg"
 width="560.000000pt" height="200.000000pt" viewBox="0 0 560.000000 200.000000"
 preserveAspectRatio="xMidYMid meet">

<g transform="translate(0.000000,200.000000) scale(0.100000,-0.100000)"
fill="#000000" stroke="none">
<path d="M2661 1504 c-86 -23 -150 -63 -232 -144 -55 -54 -85 -94 -108 -143
-126 -264 -47 -567 177 -685 85 -44 148 -55 276 -49 88 4 174 19 176 30 5 23
37 243 36 244 -1 1 -24 -5 -51 -13 -28 -9 -90 -16 -140 -17 -81 -2 -96 1 -148
27 -105 51 -154 168 -123 294 23 93 67 149 149 191 57 30 78 35 135 35 80 0
136 -15 187 -50 20 -14 40 -23 42 -20 5 5 52 211 53 228 0 13 -96 57 -157 73
-71 19 -201 18 -272 -1z"/>
<path d="M3430 1506 c-218 -59 -382 -271 -397 -515 -17 -266 125 -462 364
-503 236 -40 472 113 560 363 31 89 42 234 24 321 -35 167 -163 301 -322 337
-59 14 -174 12 -229 -3z m209 -236 c78 -39 113 -109 112 -221 -1 -234 -184
-398 -357 -320 -180 82 -132 459 70 547 46 20 130 17 175 -6z"/>
<path d="M735 1009 c-126 -269 -231 -494 -233 -499 -2 -6 47 -10 126 -10 l129
0 38 95 39 95 177 0 c161 0 178 -2 183 -17 2 -10 12 -53 21 -96 l17 -77 474 0
c261 0 474 3 474 8 0 4 7 50 15 102 8 52 15 103 15 113 0 16 -21 17 -352 15
l-353 -3 -15 -100 c-9 -55 -18 -95 -22 -90 -3 6 -54 223 -114 483 l-109 472
-140 0 -140 0 -230 -491z m374 67 c17 -82 30 -151 27 -153 -2 -2 -48 -2 -103
-1 l-99 3 65 157 c36 87 68 154 72 150 4 -4 21 -74 38 -156z"/>
<path d="M1616 1473 c-12 -58 -26 -159 -26 -185 l0 -28 349 0 c324 0 350 1
355 18 3 9 10 53 16 97 6 44 13 90 16 103 l4 22 -354 0 -354 0 -6 -27z"/>
<path d="M4217 1493 c-5 -9 -307 -980 -307 -988 0 -3 57 -5 128 -5 l127 0 80
280 c43 153 81 278 83 276 3 -4 102 -533 102 -548 0 -5 30 -8 68 -8 l67 0 142
283 142 282 0 -282 1 -283 126 0 125 0 -6 233 c-3 127 -8 353 -11 500 l-6 268
-116 -3 -116 -3 -137 -268 c-76 -148 -139 -270 -141 -273 -3 -2 -28 112 -57
254 -29 141 -55 265 -57 275 -5 15 -19 17 -119 17 -63 0 -116 -3 -118 -7z"/>
<path d="M1546 1016 c-9 -58 -16 -112 -16 -120 0 -14 36 -16 310 -16 171 0
310 1 310 3 1 1 9 55 19 120 l18 117 -312 0 -312 0 -17 -104z"/>
</g>
</svg>
